<?xml version="1.0" standalone="no"?>
<!DOCTYPE svg PUBLIC "-//W3C//DTD SVG 20010904//EN"
 "http://www.w3.org/TR/2001/REC-SVG-20010904/DTD/svg10.dtd">
<svg version="1.0" xmlns="http://www.w3.org/2000/svg"
 width="700.000000pt" height="700.000000pt" viewBox="0 0 700.000000 700.000000"
 preserveAspectRatio="xMidYMid meet">
<metadata>
Created by potrace 1.14, written by Peter Selinger 2001-2017
</metadata>
<g transform="translate(0.000000,700.000000) scale(0.100000,-0.100000)"
fill="#000000" stroke="none">
<path d="M767 6564 c-1 -1 -24 -4 -50 -7 -122 -15 -233 -114 -268 -239 -17
-63 -17 -2074 0 -2138 57 -207 300 -305 486 -195 22 13 168 152 325 309 l285
286 540 -540 540 -540 -540 -540 -540 -540 -295 294 c-162 161 -308 300 -325
309 -201 101 -440 -12 -481 -228 -4 -22 -7 -499 -7 -1060 1 -1129 -3 -1064 65
-1163 35 -50 115 -106 178 -123 52 -14 2006 -20 2099 -6 74 11 135 41 184 90
94 95 123 227 76 352 -20 56 -43 82 -320 360 l-299 301 540 539 540 540 540
-540 540 -539 -299 -301 c-315 -317 -319 -322 -339 -435 -10 -52 6 -149 33
-200 24 -47 94 -113 145 -138 25 -11 70 -25 100 -29 66 -10 2018 -9 2074 1
127 21 241 135 262 262 9 56 11 2008 1 2074 -22 158 -156 278 -315 281 -134 3
-156 -13 -492 -347 l-295 -294 -540 540 -540 540 540 540 540 540 295 -294
c162 -161 309 -300 325 -309 192 -97 421 1 475 203 18 65 18 2075 1 2140 -34
122 -144 220 -266 237 -22 3 -497 6 -1055 6 -1073 0 -1049 1 -1130 -46 -73
-42 -141 -137 -155 -217 -14 -75 -2 -157 32 -225 8 -16 147 -163 309 -325
l294 -295 -540 -540 -540 -540 -540 540 -540 540 294 295 c161 162 300 309
309 325 33 66 47 164 33 232 -23 108 -125 214 -236 244 -34 9 -299 12 -1048
13 -552 0 -1004 0 -1005 0z"/>
</g>
</svg>
